<svg width="45" height="45" viewBox="0 0 45 45" fill="none" xmlns="http://www.w3.org/2000/svg">
<path d="M22.4764 3.72943C22.0791 3.73564 21.7005 3.89923 21.4237 4.1843C21.1469 4.46936 20.9944 4.85261 20.9999 5.24994V5.99994H12.7499C12.5512 5.99724 12.3539 6.03405 12.1696 6.10822C11.9852 6.18239 11.8174 6.29245 11.676 6.43201C11.5345 6.57156 11.4222 6.73783 11.3455 6.92116C11.2689 7.10449 11.2294 7.30122 11.2294 7.49994H8.99988C8.80111 7.49713 8.60377 7.53385 8.41932 7.60797C8.23486 7.68209 8.06698 7.79213 7.92543 7.9317C7.78387 8.07127 7.67147 8.23757 7.59475 8.42096C7.51802 8.60435 7.47852 8.80115 7.47852 8.99994C7.47852 9.19873 7.51802 9.39553 7.59475 9.57892C7.67147 9.7623 7.78387 9.92861 7.92543 10.0682C8.06698 10.2077 8.23486 10.3178 8.41932 10.3919C8.60377 10.466 8.80111 10.5027 8.99988 10.4999H35.9999C36.1986 10.5027 36.396 10.466 36.5804 10.3919C36.7649 10.3178 36.9328 10.2077 37.0743 10.0682C37.2159 9.92861 37.3283 9.7623 37.405 9.57892C37.4817 9.39553 37.5212 9.19873 37.5212 8.99994C37.5212 8.80115 37.4817 8.60435 37.405 8.42096C37.3283 8.23757 37.2159 8.07127 37.0743 7.9317C36.9328 7.79213 36.7649 7.68209 36.5804 7.60797C36.396 7.53385 36.1986 7.49713 35.9999 7.49994H33.7704C33.7704 7.30122 33.7309 7.10449 33.6542 6.92116C33.5776 6.73783 33.4652 6.57156 33.3238 6.43201C33.1823 6.29245 33.0145 6.18239 32.8302 6.10822C32.6458 6.03405 32.4486 5.99724 32.2499 5.99994H23.9999V5.24994C24.0026 5.04925 23.9651 4.85006 23.8895 4.66415C23.8138 4.47824 23.7017 4.30939 23.5596 4.16761C23.4176 4.02583 23.2485 3.91399 23.0624 3.83873C22.8764 3.76346 22.6771 3.7263 22.4764 3.72943ZM8.99988 13.4999L11.6893 36.3515C11.8663 37.862 13.1449 38.9999 14.6659 38.9999H30.3339C31.8549 38.9999 33.1319 37.862 33.3104 36.3515L35.9999 13.4999H8.99988Z" fill="#FF0000"/>
</svg>
