<svg width="31" height="31" viewBox="0 0 31 31" fill="none" xmlns="http://www.w3.org/2000/svg">
<path d="M15.5 2.58333C15.3291 2.58335 15.16 2.61725 15.0024 2.68308C14.8448 2.7489 14.7018 2.84533 14.5817 2.96679L1.554 14.3345C1.47263 14.3945 1.4065 14.4728 1.36093 14.5631C1.31536 14.6533 1.29162 14.753 1.29163 14.8542C1.29163 15.0254 1.35967 15.1897 1.48079 15.3108C1.6019 15.432 1.76617 15.5 1.93746 15.5H5.16663V25.8333C5.16663 26.5463 5.74529 27.125 6.45829 27.125H11.625C12.338 27.125 12.9166 26.5463 12.9166 25.8333V18.0833H18.0833V25.8333C18.0833 26.5463 18.662 27.125 19.375 27.125H24.5416C25.2546 27.125 25.8333 26.5463 25.8333 25.8333V15.5H29.0625C29.2337 15.5 29.398 15.432 29.5191 15.3108C29.6402 15.1897 29.7083 15.0254 29.7083 14.8542C29.7083 14.753 29.6846 14.6533 29.639 14.5631C29.5934 14.4728 29.5273 14.3945 29.4459 14.3345L16.4258 2.97436C16.4233 2.97183 16.4208 2.9693 16.4183 2.96679C16.2981 2.84533 16.1551 2.7489 15.9975 2.68308C15.8399 2.61725 15.6708 2.58335 15.5 2.58333Z" fill="black"/>
</svg>
