<svg width="36" height="34" viewBox="0 0 36 34" fill="none" xmlns="http://www.w3.org/2000/svg">
<path d="M15.448 2.745C8.97241 2.745 3.71045 7.81302 3.71045 14.05C3.71045 20.287 8.97241 25.355 15.448 25.355C18.0102 25.355 20.3783 24.5601 22.3093 23.2145L31.393 31.9427L33.3349 30.0723L24.3591 21.4066C26.123 19.4271 27.1856 16.8581 27.1856 14.05C27.1856 7.81302 21.9237 2.745 15.448 2.745ZM15.448 4.075C21.1766 4.075 25.8047 8.53257 25.8047 14.05C25.8047 19.5674 21.1766 24.025 15.448 24.025C9.71949 24.025 5.09134 19.5674 5.09134 14.05C5.09134 8.53257 9.71949 4.075 15.448 4.075Z" fill="black"/>
</svg>
