<svg width="51" height="51" viewBox="0 0 51 51" fill="none" xmlns="http://www.w3.org/2000/svg">
<path d="M47.43 20.91H37.689L28.101 10.506L27.897 10.302C26.418 8.97598 24.225 9.07798 22.848 10.506L13.311 20.91H3.57005C3.00905 20.91 2.55005 21.369 2.55005 21.93C2.55005 22.491 3.00905 22.95 3.57005 22.95H6.32405L10.761 40.647C11.22 42.228 12.648 43.35 14.28 43.35H36.822C38.454 43.35 39.882 42.228 40.2901 40.647L44.676 22.95H47.43C47.991 22.95 48.45 22.491 48.45 21.93C48.45 21.369 47.991 20.91 47.43 20.91ZM24.327 11.934C24.939 11.271 25.857 11.271 26.469 11.781L34.884 20.91H16.116L24.327 11.934ZM38.352 40.137C38.148 40.851 37.536 41.31 36.822 41.31H14.28C13.566 41.31 12.954 40.8 12.75 40.137L8.46605 22.95H42.534L38.352 40.137ZM32.13 32.13C32.13 32.691 31.671 33.15 31.11 33.15H19.89C19.329 33.15 18.87 32.691 18.87 32.13C18.87 31.569 19.329 31.11 19.89 31.11H31.11C31.671 31.11 32.13 31.569 32.13 32.13Z" fill="black"/>
</svg>
