<svg width="50" height="50" viewBox="0 0 50 50" fill="none" xmlns="http://www.w3.org/2000/svg">
<path d="M41.1759 42.4861C40.7638 35.625 36.0833 29.9167 29.7546 27.9768C33.5879 26.1852 36.25 22.2917 36.25 17.7778C36.25 11.5648 31.2129 6.52777 25 6.52777C18.787 6.52777 13.75 11.5648 13.75 17.7778C13.75 22.2917 16.412 26.1852 20.25 27.9768C13.9212 29.9167 9.24069 35.625 8.82866 42.4861C8.79625 43.0185 9.21754 43.4722 9.75458 43.4722C10.2407 43.4722 10.6481 43.0926 10.6805 42.6065C11.1203 35.0833 17.3657 29.1204 25 29.1204C32.6342 29.1204 38.8796 35.0833 39.324 42.6065C39.3518 43.0926 39.7592 43.4722 40.2499 43.4722C40.787 43.4722 41.2083 43.0185 41.1759 42.4861ZM15.6018 17.7778C15.6018 12.588 19.8101 8.37962 25 8.37962C30.1898 8.37962 34.3981 12.588 34.3981 17.7778C34.3981 22.9676 30.1898 27.1759 25 27.1759C19.8101 27.1759 15.6018 22.9676 15.6018 17.7778Z" fill="black"/>
</svg>
