<svg width="1065" height="1024" viewBox="0 0 1065 1024" fill="none" xmlns="http://www.w3.org/2000/svg">
<path d="M494.168 412.888C491.769 390.813 492.04 364.347 492.479 341.951C492.918 319.555 491.313 290.403 492.496 269.341C493.661 248.263 477.396 243.246 461.553 232.69C445.728 222.117 428.179 217.776 409.735 211.882C391.292 206.004 367.933 205.058 347.597 203.082C327.262 201.106 298.532 201.343 278.349 203.825C258.166 206.325 239.114 211.848 220.67 217.084C202.243 222.337 186.316 230.647 170.271 239.311C154.225 247.976 142.217 257.012 128.84 268.818C115.446 280.607 103.708 291.197 92.6956 305.3C81.6834 319.403 73.3398 332.205 64.7766 348.318C56.2135 364.431 48.1739 379.852 41.4855 397.654C34.7802 415.439 30.9631 433.865 26.3015 453.407C21.6399 472.965 21.015 498.114 19.4442 519.176C17.8734 540.238 17.1472 565.995 19.5624 586.854C21.9777 607.713 23.7342 631.224 28.379 650.664C33.0237 670.104 38.3609 687.365 44.9479 705.049C51.5181 722.716 59.1861 738.457 68.6782 753.928C78.1872 769.399 86.8686 781.087 99.3671 794.177C111.866 807.283 123.148 818.194 137.369 828.801C151.607 839.391 164.444 848.596 181.317 855.791C198.207 862.986 216.954 870.468 235.719 874.015C254.467 877.579 278.417 883.203 298.211 882.393C318.006 881.565 343.527 878.457 362.055 873.61C380.583 868.763 398.689 863.561 415.309 855.926C431.912 848.275 449.41 842.482 463.631 831.622C477.852 820.762 498.525 817.046 499.235 796.288C499.944 775.531 498.829 745.247 499.235 723.662C499.64 702.076 498.88 673.566 499.235 652.724C499.589 631.882 498.339 610.837 518.236 599.099C538.149 587.361 539.061 569.119 536.392 546.318C460.388 546.318 384.384 546.318 308.379 546.318C308.379 560.962 308.379 575.588 308.379 590.232C343.476 585.249 382.762 594.606 386.073 632.456C389.383 670.307 382.34 712.802 386.073 748.997C389.805 785.192 370.72 804.159 337.092 811.489C303.464 818.819 267.05 810.003 241.208 790.833C215.367 771.663 200.537 753.979 187.296 724.827C174.037 695.692 167.568 664.024 163.109 630.784C158.667 597.545 155.61 552.567 156.37 517.605C157.13 482.643 160.019 442.108 166.623 409.628C173.243 377.149 182.347 348.436 197.041 320.129C211.718 291.805 234.418 277.465 262.405 265.575C290.375 253.684 332.177 249.901 360.349 262.957C388.522 276.013 406.171 296.129 419.987 323.237C433.786 350.362 444.444 382.486 448.565 412.888C463.766 412.888 478.967 412.888 494.168 412.888Z" stroke="#008140" stroke-width="0.3"/>
<path d="M1049.84 210.21C994.378 209.315 936.075 212.135 882.635 208.521C882.635 223.164 882.635 237.791 882.635 252.434C912.429 244.395 944.131 266.994 933.862 295.216C923.576 323.423 920.57 345.531 910.976 371.981C901.366 398.43 896.485 422.262 887.331 447.985C878.159 473.692 871.454 498.25 863.685 523.99C855.899 549.73 847.673 574.659 840.377 600.332C833.063 625.988 826.493 651.593 818.454 676.37C811.039 652.234 802.543 626.714 794.774 602.089C787.005 577.48 779.286 554.087 771.044 529.547C762.802 505.022 755.826 479.873 747.398 455.231C738.953 430.589 733.413 406.723 724.411 381.946C715.409 357.169 710.663 332.222 701.542 306.854C692.405 281.485 697.556 246.439 734.004 252.434C735.17 237.74 731.082 224.211 734.004 210.21C660.821 210.21 587.62 210.21 514.436 210.21C517.223 223.283 517.223 239.311 514.436 252.434C574.817 268.514 576.726 336.259 595.626 387.435C614.542 438.595 631.449 496.831 649.589 549.662C667.745 602.477 684.432 659.615 702.285 713.156C720.155 766.68 738.345 821.454 754.272 875.671C774.54 875.671 794.808 875.671 815.076 875.671C828.756 820.863 847.977 765.261 865.864 711.957C883.767 658.67 900.42 602.426 918.222 549.814C936.041 497.219 951.748 438.274 970.581 387.672C989.43 337.086 990.663 270.135 1049.84 254.123C1049.84 239.48 1049.84 224.853 1049.84 210.21Z" stroke="#008140" stroke-width="0.3"/>
<path d="M494.168 412.888C491.769 390.813 492.04 364.347 492.479 341.951C492.918 319.555 491.313 290.403 492.496 269.341C493.661 248.263 477.396 243.246 461.553 232.69C445.728 222.117 428.179 217.776 409.735 211.882C391.292 206.004 367.933 205.058 347.597 203.082C327.262 201.106 298.532 201.343 278.349 203.825C258.166 206.325 239.114 211.848 220.67 217.084C202.243 222.337 186.316 230.647 170.271 239.311C154.225 247.976 142.217 257.012 128.84 268.818C115.446 280.607 103.708 291.197 92.6956 305.3C81.6834 319.403 73.3398 332.205 64.7766 348.318C56.2135 364.431 48.1739 379.852 41.4855 397.654C34.7802 415.439 30.9631 433.865 26.3015 453.407C21.6399 472.965 21.015 498.114 19.4442 519.176C17.8734 540.238 17.1472 565.995 19.5624 586.854C21.9777 607.713 23.7342 631.224 28.379 650.664C33.0237 670.104 38.3609 687.365 44.9479 705.049C51.5181 722.716 59.1861 738.457 68.6782 753.928C78.1872 769.399 86.8686 781.087 99.3671 794.177C111.866 807.283 123.148 818.194 137.369 828.801C151.607 839.391 164.444 848.596 181.317 855.791C198.207 862.986 216.954 870.468 235.719 874.015C254.467 877.579 278.417 883.203 298.211 882.393C318.006 881.565 343.527 878.457 362.055 873.61C380.583 868.763 398.689 863.561 415.309 855.926C431.912 848.275 449.41 842.482 463.631 831.622C477.852 820.762 498.525 817.046 499.235 796.288C499.944 775.531 498.829 745.247 499.235 723.662C499.64 702.076 498.88 673.566 499.235 652.724C499.589 631.882 498.339 610.837 518.236 599.099C538.149 587.361 539.061 569.119 536.392 546.318C460.388 546.318 384.384 546.318 308.379 546.318C308.379 560.962 308.379 575.588 308.379 590.232C343.476 585.249 382.762 594.606 386.073 632.456C389.383 670.307 382.34 712.802 386.073 748.997C389.805 785.192 370.72 804.159 337.092 811.489C303.464 818.819 267.05 810.003 241.208 790.833C215.367 771.663 200.537 753.979 187.296 724.827C174.037 695.692 167.568 664.024 163.109 630.784C158.667 597.545 155.61 552.567 156.37 517.605C157.13 482.643 160.019 442.108 166.623 409.628C173.243 377.149 182.347 348.436 197.041 320.129C211.718 291.805 234.418 277.465 262.405 265.575C290.375 253.684 332.177 249.901 360.349 262.957C388.522 276.013 406.171 296.129 419.987 323.237C433.786 350.362 444.444 382.486 448.565 412.888C463.766 412.888 478.967 412.888 494.168 412.888Z" fill="#008140" stroke="white" stroke-width="2"/>
<path d="M1049.84 210.21C994.378 209.315 936.075 212.135 882.635 208.521C882.635 223.164 882.635 237.791 882.635 252.434C912.429 244.395 944.131 266.994 933.862 295.216C923.576 323.423 920.57 345.531 910.976 371.981C901.366 398.43 896.485 422.262 887.331 447.985C878.159 473.692 871.454 498.25 863.685 523.99C855.899 549.73 847.673 574.659 840.377 600.332C833.063 625.988 826.493 651.593 818.454 676.37C811.039 652.234 802.543 626.714 794.774 602.089C787.005 577.48 779.286 554.087 771.044 529.547C762.802 505.022 755.826 479.873 747.398 455.231C738.953 430.589 733.413 406.723 724.411 381.946C715.409 357.169 710.663 332.222 701.542 306.854C692.405 281.485 697.556 246.439 734.004 252.434C735.17 237.74 731.082 224.211 734.004 210.21C660.821 210.21 587.62 210.21 514.436 210.21C517.223 223.283 517.223 239.311 514.436 252.434C574.817 268.514 576.726 336.259 595.626 387.435C614.542 438.595 631.449 496.831 649.589 549.662C667.745 602.477 684.432 659.615 702.285 713.156C720.155 766.68 738.345 821.454 754.272 875.671C774.54 875.671 794.808 875.671 815.076 875.671C828.756 820.863 847.977 765.261 865.864 711.957C883.767 658.67 900.42 602.426 918.222 549.814C936.041 497.219 951.748 438.274 970.581 387.672C989.43 337.086 990.663 270.135 1049.84 254.123C1049.84 239.48 1049.84 224.853 1049.84 210.21Z" fill="#008140" stroke="white" stroke-width="2"/>
</svg>
