<svg width="50" height="50" viewBox="0 0 50 50" fill="none" xmlns="http://www.w3.org/2000/svg">
<path d="M25 3C12.8616 3 3 12.8616 3 25C3 36.0191 11.1275 45.1384 21.7129 46.7285L22.8613 46.9023V29.5664H17.6641V26.0469H22.8613V21.373C22.8613 18.495 23.552 16.5994 24.6953 15.4102C25.8387 14.2209 27.528 13.6211 29.8789 13.6211C31.7587 13.6211 32.49 13.735 33.1855 13.8203V16.7012H30.7383C29.3497 16.7012 28.2104 17.4759 27.6191 18.5078C27.0278 19.5397 26.8438 20.7718 26.8438 22.0273V26.0449H32.9668L32.4219 29.5645H26.8438V46.9297L27.9785 46.7754C38.7143 45.3194 47 36.1268 47 25C47 12.8616 37.1384 3 25 3ZM25 5C36.0576 5 45 13.9424 45 25C45 34.7298 38.0358 42.7318 28.8438 44.5332V31.5645H34.1367L35.2988 24.0449H28.8438V22.0273C28.8438 20.9899 29.0336 20.0603 29.3535 19.502C29.6735 18.9436 29.9819 18.7012 30.7383 18.7012H35.1855V12.0098L34.3184 11.8926C33.7186 11.8114 32.3492 11.6211 29.8789 11.6211C27.1758 11.6211 24.8556 12.3574 23.2539 14.0234C21.6522 15.6894 20.8613 18.1701 20.8613 21.373V24.0469H15.6641V31.5664H20.8613V44.4707C11.817 42.5548 5 34.6244 5 25C5 13.9424 13.9424 5 25 5Z" fill="white"/>
</svg>
