<svg width="100" height="60" viewBox="0 0 100 60" fill="none" xmlns="http://www.w3.org/2000/svg">
<g clip-path="url(#clip0_87_4229)">
<path d="M96 0H4C1.79086 0 0 1.79086 0 4V56C0 58.2091 1.79086 60 4 60H96C98.2091 60 100 58.2091 100 56V4C100 1.79086 98.2091 0 96 0Z" fill="#2F579A"/>
<mask id="mask0_87_4229" style="mask-type:luminance" maskUnits="userSpaceOnUse" x="0" y="0" width="100" height="60">
<path d="M96 0H4C1.79086 0 0 1.79086 0 4V56C0 58.2091 1.79086 60 4 60H96C98.2091 60 100 58.2091 100 56V4C100 1.79086 98.2091 0 96 0Z" fill="white"/>
</mask>
<g mask="url(#mask0_87_4229)">
<path d="M89.587 21.3755C89.587 17.0315 86.0685 13.5085 81.7255 13.5015V13.5H53.073V29.2585H81.7255V29.25C86.0685 29.2425 89.587 25.7195 89.587 21.3755ZM89.587 38.0885C89.587 33.7445 86.0685 30.222 81.7255 30.2145V30.2135H53.073V45.9725H81.7255V45.9625C86.0685 45.9555 89.587 42.4335 89.587 38.0885ZM31.4835 30.2135V29.2585H52.5215V27.9305C52.5215 20.0185 46.1085 13.605 38.1965 13.605H24.8265C16.9145 13.605 10.5 20.0185 10.5 27.9305V31.751C10.5 39.6625 16.9145 46.0765 24.8265 46.0765H38.1965C46.1085 46.0765 52.5215 39.6625 52.5215 31.751V30.2135H31.4835Z" fill="white"/>
</g>
</g>
<defs>
<clipPath id="clip0_87_4229">
<rect width="100" height="60" fill="white"/>
</clipPath>
</defs>
</svg>
