<svg width="100" height="60" viewBox="0 0 100 60" fill="none" xmlns="http://www.w3.org/2000/svg">
<g clip-path="url(#clip0_87_2501)">
<path d="M96 0H4C1.79086 0 0 1.79086 0 4V56C0 58.2091 1.79086 60 4 60H96C98.2091 60 100 58.2091 100 56V4C100 1.79086 98.2091 0 96 0Z" fill="#B9E8FF"/>
<path d="M62.8426 13.1135C60.992 11.0099 57.6466 10.108 53.3671 10.108H40.9464C40.0709 10.108 39.3268 10.7431 39.1897 11.6041L34.0181 44.3148C33.9152 44.9597 34.4161 45.5441 35.0716 45.5441H42.7396L44.6655 33.3623L44.6058 33.7438C44.7428 32.8828 45.4813 32.2477 46.3558 32.2477H49.9997C57.158 32.2477 62.763 29.3481 64.4003 20.9601C64.449 20.7121 64.491 20.4706 64.5275 20.2347C64.3207 20.1255 64.3207 20.1255 64.5275 20.2347C65.015 17.1344 64.5241 15.0242 62.8426 13.1135Z" fill="#27346A"/>
<path d="M47.5995 19.1178C47.8041 19.0208 48.0318 18.9668 48.2706 18.9668H58.0081C59.1612 18.9668 60.2369 19.0417 61.2197 19.1994C61.5016 19.2446 61.7747 19.2964 62.04 19.356C62.3053 19.4144 62.5629 19.4805 62.8128 19.5533C62.9377 19.5897 63.0604 19.6272 63.1809 19.6669C63.664 19.8278 64.114 20.0153 64.5275 20.2347C65.015 17.1333 64.5241 15.0242 62.8426 13.1135C60.9909 11.0099 57.6466 10.108 53.3671 10.108H40.9453C40.0709 10.108 39.3268 10.7431 39.1897 11.6041L34.0181 44.3137C33.9153 44.9597 34.4161 45.543 35.0705 45.543H42.7396L46.735 20.2755C46.8168 19.7573 47.1507 19.3328 47.5995 19.1178Z" fill="#27346A"/>
<path d="M64.4004 20.9601C62.7631 29.3469 57.1581 32.2477 49.9997 32.2477H46.3548C45.4803 32.2477 44.7418 32.8827 44.6058 33.7438L42.2101 48.8902C42.1206 49.4547 42.5584 49.9662 43.1311 49.9662H49.5951C50.3601 49.9662 51.0113 49.4106 51.1307 48.6575L51.1937 48.329L52.412 40.629L52.4905 40.2034C52.6099 39.4504 53.2611 38.8947 54.0261 38.8947H54.9934C61.2552 38.8947 66.1582 36.3578 67.591 29.0206C68.1891 25.9545 67.8795 23.3944 66.2975 21.5962C65.8177 21.0516 65.2218 20.6018 64.5275 20.2346C64.49 20.4717 64.449 20.712 64.4004 20.9601Z" fill="#2790C3"/>
<path d="M62.814 19.5533C62.5641 19.4806 62.3065 19.4144 62.0412 19.356C61.7759 19.2976 61.5017 19.2457 61.2209 19.2005C60.237 19.0418 59.1624 18.9668 58.0082 18.9668H48.2718C48.0319 18.9668 47.8041 19.0208 47.6007 19.1189C47.1508 19.3339 46.818 19.7573 46.7362 20.2766L44.6666 33.3624L44.6069 33.7439C44.7429 32.8828 45.4814 32.2477 46.3559 32.2477H50.0008C57.1592 32.2477 62.7642 29.3481 64.4015 20.9602C64.4501 20.7121 64.4911 20.4717 64.5286 20.2347C64.1141 20.0164 63.6652 19.8279 63.1821 19.668C63.0616 19.6283 62.9389 19.5897 62.814 19.5533Z" fill="#1F264F"/>
</g>
<defs>
<clipPath id="clip0_87_2501">
<rect width="100" height="60" fill="white"/>
</clipPath>
</defs>
</svg>
