<svg width="574" height="574" viewBox="0 0 574 574" fill="none" xmlns="http://www.w3.org/2000/svg">
<path d="M388.523 540.453L388.123 532.826C384.881 533.165 381.656 533.508 378.447 533.508C357.196 533.508 336.533 525.766 320.426 511.496L225.252 427.102C189.127 395.072 185.806 339.821 217.853 303.695C249.9 267.57 305.172 264.268 341.259 296.256L359.228 312.196L374.843 287.299L368.944 178.199C368.013 161.313 354.086 148.107 337.16 148.107H307.108V100.143C307.108 44.9225 262.179 0 206.964 0C151.771 0 106.858 44.912 106.858 100.126V148.111H76.6494C59.7601 148.111 45.7964 161.317 44.8852 178.203L25.3066 540.453C24.8492 549.181 27.9808 557.719 33.9962 564.055C39.9929 570.395 48.3392 574 57.087 574H356.743C365.489 574 373.837 570.395 379.853 564.055C385.846 557.719 388.997 549.181 388.523 540.453ZM165.144 100.125C165.144 77.052 183.89 58.2868 206.963 58.2868C230.033 58.2868 248.819 77.0729 248.819 100.142V148.11H165.144V100.125Z" fill="#59D26B"/>
<path d="M530.524 206.209C512.347 194.825 488.362 200.29 476.941 218.464L371.484 386.575L310.616 332.61C294.564 318.381 270.011 319.863 255.762 335.914C241.512 351.967 242.992 376.519 259.063 390.768L354.237 475.143C361.389 481.482 370.571 484.936 380.021 484.936C381.843 484.936 383.703 484.802 385.523 484.536C396.833 482.925 406.852 476.398 412.922 466.72L542.778 259.771C554.205 241.595 548.703 217.612 530.524 206.209Z" fill="#59D26B"/>
</svg>
